<?xml version="1.0" encoding="utf-8"?>
<svg xmlns="http://www.w3.org/2000/svg" viewBox="0 0 500 500" xmlns:bx="https://boxy-svg.com" width="500px" height="500px"><defs><bx:export><bx:file format="svg"/></bx:export></defs><g style="" transform="matrix(1.247547, 0, 0, 1.247547, 0.000004, 27.777407)"><path fill-rule="evenodd" d="M 59.374 59.382 L 207.813 59.382 C 224.227 59.382 237.499 46.081 237.499 29.694 C 237.499 13.281 224.227 0.008 207.813 0.008 L 59.374 0.008 C 26.601 0.008 0 26.582 0 59.382 L 0 296.881 C 0 329.656 26.601 356.255 59.374 356.255 L 296.873 356.255 C 329.68 356.255 356.247 329.656 356.247 296.881 L 356.247 237.509 C 356.247 221.089 342.98 207.821 326.561 207.821 C 310.173 207.821 296.873 221.089 296.873 237.509 L 296.873 296.881 L 59.374 296.881 L 59.374 59.382 Z" style="stroke-width: 1px; fill: rgb(71, 114, 250);"/><path fill-rule="evenodd" d="M 392.079 8.707 C 380.502 -2.902 361.712 -2.902 350.102 8.707 L 192.969 165.844 L 169.427 142.297 C 157.847 130.693 139.054 130.693 127.445 142.297 C 115.87 153.878 115.87 172.67 127.445 184.28 L 171.98 228.81 C 177.561 234.361 185.101 237.509 192.969 237.509 C 200.866 237.509 208.406 234.361 213.957 228.81 L 392.079 50.682 C 403.689 39.075 403.689 20.282 392.079 8.707 Z" style="stroke-width: 1px; fill: rgb(255, 176, 0);"/></g></svg>
